<svg viewBox="0 0 512 512" xmlns="http://www.w3.org/2000/svg"><path d="M480 344v-72c0-22-18-40-40-40h-32v-80c0-5-3-8-8-8h-48c-4 0-8 3-8 8v80h-72v-96c0-5-3-8-8-8h-48c-4 0-8 3-8 8v96h-72v-80c0-5-3-8-8-8H80c-4 0-8 3-8 8v80H40c-22 0-40 18-40 40v72c0 17 9 33 24 41v87H8a8 8 0 000 16h464a8 8 0 000-16h-16v-87c15-8 24-24 24-41zM360 160h32v72h-32zm-136-16h32v88h-32zM88 160h32v72H88zM16 272c0-13 11-24 24-24h400c14 0 24 11 24 24v72c0 12-7 24-19 29s-26 3-35-7c-6-6-10-14-10-22v-32c0-12-6-23-17-29h-1l-4-1-2-1-3-1h-10l-4 1-2 1-4 2-2 1a32 32 0 00-15 27v16a32 32 0 11-64 0v-16c0-12-6-23-17-29h-1l-4-1-2-1-3-1h-10l-4 1-2 1-4 2-2 1a32 32 0 00-15 27v48a32 32 0 11-64 0v-48c0-12-6-23-17-29h-1l-4-1-2-1-3-1h-5c-17 0-32 14-32 32v32c0 8-3 16-9 22a33 33 0 01-35 7c-4-1-7-4-10-7-6-6-10-14-10-22zm24 200v-81h3a48 48 0 0027-4l1-1 5-3 1-1c12-9 20-23 19-38v-32a16 16 0 018-14l3-1 3-1h1a17 17 0 014 0h1l1 1c7 2 11 9 11 16v47a48 48 0 0096 0v-48c0-6 3-11 8-14l3-1 3-1h1a16 16 0 015 0l1 1c7 2 11 9 11 16v15a48 48 0 0096 0v-16a16 16 0 018-14l3-1 3-1h1a17 17 0 014 0h1l1 1c7 2 11 9 11 16v31a48 48 0 0020 38l1 1a49 49 0 0011 6h1c4 2 9 2 13 3h1l6-1h3v81zm200-360c22 0 40-18 40-40 0-19-27-61-33-69a8 8 0 00-13 0c-6 8-34 50-34 69 0 22 18 40 40 40zm0-90c12 18 24 41 24 50a24 24 0 11-48 0c0-9 13-32 24-50zm136 106c22 0 40-18 40-40 0-19-27-61-33-69a8 8 0 00-13 0c-6 8-34 50-34 69 0 22 18 40 40 40zm0-90c12 18 24 41 24 50a24 24 0 11-48 0c0-9 13-32 24-50zm-272 90c22 0 40-18 40-40 0-19-27-61-33-69a8 8 0 00-13 0c-6 8-34 50-34 69 0 22 18 40 40 40zm0-90c12 18 24 41 24 50a24 24 0 11-48 0c0-9 13-32 24-50zm0 0"/></svg>