<svg xmlns="http://www.w3.org/2000/svg" viewBox="0 0 480 480"><path d="M240 0C142.798 0 64 78.798 64 176c0 94.576 162.896 292.712 169.832 301.096a8.003 8.003 0 0012.336 0C253.104 468.712 416 270.576 416 176 416 78.798 337.202 0 240 0zm0 459.288C209.896 421.712 80 254.976 80 176c.101-88.324 71.677-159.899 160-160 88.324.101 159.899 71.676 160 160 0 78.96-129.896 245.704-160 283.288z"/><path d="M348.88 145.664l-104-80a8.001 8.001 0 00-9.76 0l-104 80A8 8 0 00136 160h24v88a8 8 0 008 8h144a8 8 0 008-8v-88h24a8 8 0 004.88-14.336zM256 240h-32v-48h32v48zm56-96a8 8 0 00-8 8v88h-32v-56a8 8 0 00-8-8h-48a8 8 0 00-8 8v56h-32v-88a8 8 0 00-8-8h-8.48L240 82.096 320.48 144H312z"/></svg>