<svg xmlns="http://www.w3.org/2000/svg" viewBox="0 0 512 512"><path d="M256 181a60 60 0 100 120 60 60 0 000-120z"/><path d="M499 211l-39-6c-5-20-13-39-24-57l23-32c4-6 4-14-1-19l-43-43c-5-5-13-5-19-1l-32 23c-18-11-37-19-57-24l-6-39c-1-8-8-13-15-13h-60c-7 0-14 5-15 13l-6 39c-20 5-39 13-57 24l-32-23c-6-4-14-4-19 1L54 97c-5 5-5 13-1 19l23 32c-11 18-19 37-24 57l-39 6c-8 1-13 8-13 15v60c0 7 5 14 13 15l39 6c5 20 13 39 24 57l-23 32c-4 6-4 14 1 19l43 43c5 5 13 5 19 1l32-23c18 11 37 19 57 24l6 39c1 8 8 13 15 13h60c7 0 14-5 15-13l6-39c20-5 39-13 57-24l32 23c6 4 14 4 19-1l43-43c5-5 5-13 1-19l-23-32c11-18 19-37 24-57l39-6c8-1 13-8 13-15v-60c0-7-5-14-13-15zM256 421a165 165 0 110-330 165 165 0 010 330z"/><path d="M325 298a89 89 0 01-69 33c-28 0-53-13-69-33-15 12-25 29-31 48a134 134 0 00200 0c-6-19-16-36-31-48z"/></svg>